<svg xmlns="http://www.w3.org/2000/svg" width="69.576" height="72.745" viewBox="0 0 69.576 72.745">
  <g id="translate_3_" data-name="translate (3)" transform="translate(-11.135)">
    <path id="Path_11120" data-name="Path 11120" d="M356.451,126.44a9.859,9.859,0,0,0,3.166-6.135h-6.332A9.859,9.859,0,0,0,356.451,126.44Z" transform="translate(-293.468 -103.188)"/>
    <path id="Path_11121" data-name="Path 11121" d="M225.173,0a21.379,21.379,0,0,0-20.729,16.26,25.689,25.689,0,0,1,14.969,10.407,16.694,16.694,0,0,0,5.639-1.114,14.244,14.244,0,0,1-3.725-8.435H217.5V12.849h9.157V8.466h4.268v4.383h9.156v4.268h-3.831a14.245,14.245,0,0,1-3.725,8.436,16.952,16.952,0,0,0,6.243,1.125v4.268a20.285,20.285,0,0,1-9.978-2.456,19.3,19.3,0,0,1-7.083,2.275,25.461,25.461,0,0,1,2.189,10.354V48.7l9.468-4.734h13.155V0Z" transform="translate(-165.805)"/>
    <path id="Path_11122" data-name="Path 11122" d="M137.495,262.084h6.756l-3.362-8.909Z" transform="translate(-108.381 -217.153)"/>
    <path id="Path_11123" data-name="Path 11123" d="M53.82,160.342A21.367,21.367,0,0,0,32.477,139H11.135v43.965H24.29l18,9v-9H53.82ZM39.7,174.3l-2.22-5.882H27.488l-2.242,5.886-3.989-1.519,9.335-24.511,3.846,0L43.693,172.8Z" transform="translate(0 -119.223)"/>
  </g>
</svg>
