<svg xmlns="http://www.w3.org/2000/svg" width="120" height="120" viewBox="0 0 120 120">
  <g id="Group_11881" data-name="Group 11881" transform="translate(9948 6635)">
    <g id="Group_11880" data-name="Group 11880" transform="translate(429 -212)">
      <circle id="Ellipse_69" data-name="Ellipse 69" cx="60" cy="60" r="60" transform="translate(-10377 -6423)" fill="#09f"/>
    </g>
    <g id="translate_3_" data-name="translate (3)" transform="translate(-9935.135 -6613)">
      <path id="Path_11120" data-name="Path 11120" d="M356.6,126.721a10.31,10.31,0,0,0,3.311-6.416h-6.622A10.31,10.31,0,0,0,356.6,126.721Z" transform="translate(-291.238 -102.404)" fill="#fff"/>
      <path id="Path_11121" data-name="Path 11121" d="M226.123,0a22.358,22.358,0,0,0-21.679,17A26.866,26.866,0,0,1,220.1,27.889a17.459,17.459,0,0,0,5.9-1.165,14.9,14.9,0,0,1-3.9-8.822h-4.007V13.438h9.576V8.854h4.464v4.584h9.576V17.9H237.7a14.9,14.9,0,0,1-3.9,8.822,17.728,17.728,0,0,0,6.529,1.177v4.464A21.214,21.214,0,0,1,229.9,29.8a20.187,20.187,0,0,1-7.408,2.38A26.627,26.627,0,0,1,224.784,43V50.93l9.9-4.951h13.758V0Z" transform="translate(-164.545)" fill="#fff"/>
      <path id="Path_11122" data-name="Path 11122" d="M137.495,262.493h7.065l-3.516-9.318Z" transform="translate(-107.558 -215.503)" fill="#fff"/>
      <path id="Path_11123" data-name="Path 11123" d="M55.775,161.32A22.345,22.345,0,0,0,33.455,139H11.135v45.979H24.893l18.829,9.415v-9.415H55.775Zm-14.767,14.6-2.321-6.151H28.237l-2.344,6.155-4.172-1.589L31.484,148.7l4.022,0,9.679,25.646Z" transform="translate(0 -118.317)" fill="#fff"/>
    </g>
  </g>
</svg>
